HIERARCHY
ROOT Hips
{
  OFFSET 0.0273292 -0.436096 0.279869
  CHANNELS 6 Xposition Yposition Zposition Zrotation Xrotation Yrotation
  JOINT LHipJoint
  {
    OFFSET 0 0 0
    CHANNELS 6 Xposition Yposition Zposition Zrotation Xrotation Yrotation
    JOINT LeftUpLeg
    {
      OFFSET 1.36306 -1.79463 0
      CHANNELS 6 Xposition Yposition Zposition Zrotation Xrotation Yrotation
      JOINT LeftLeg
      {
        OFFSET 2.44807 -6.72613 0.000295034
        CHANNELS 6 Xposition Yposition Zposition Zrotation Xrotation Yrotation
        JOINT LeftFoot
        {
          OFFSET 2.5622 -7.03959 3.59965e-05
          CHANNELS 6 Xposition Yposition Zposition Zrotation Xrotation Yrotation
          JOINT LeftToeBase
          {
            OFFSET 0.15764 -0.43311 2.32255
            CHANNELS 6 Xposition Yposition Zposition Zrotation Xrotation Yrotation
            End Site
            {
              OFFSET 0 0 0
            }
          }
        }
      }
    }
  }
  JOINT RHipJoint
  {
    OFFSET 0 0 0
    CHANNELS 6 Xposition Yposition Zposition Zrotation Xrotation Yrotation
    JOINT RightUpLeg
    {
      OFFSET -1.30552 -1.79463 0
      CHANNELS 6 Xposition Yposition Zposition Zrotation Xrotation Yrotation
      JOINT RightLeg
      {
        OFFSET -2.54234 -6.98562 -0.000396375
        CHANNELS 6 Xposition Yposition Zposition Zrotation Xrotation Yrotation
        JOINT RightFoot
        {
          OFFSET -2.56826 -7.05623 -4.47982e-05
          CHANNELS 6 Xposition Yposition Zposition Zrotation Xrotation Yrotation
          JOINT RightToeBase
          {
            OFFSET -0.16473 -0.45259 2.36315
            CHANNELS 6 Xposition Yposition Zposition Zrotation Xrotation Yrotation
            End Site
            {
              OFFSET 0 0 0
            }
          }
        }
      }
    }
  }
  JOINT LowerBack
  {
    OFFSET 0 0 0
    CHANNELS 6 Xposition Yposition Zposition Zrotation Xrotation Yrotation
    JOINT Spine
    {
      OFFSET 0.0282699 2.03559 0
      CHANNELS 6 Xposition Yposition Zposition Zrotation Xrotation Yrotation
      JOINT Spine1
      {
        OFFSET 0.05672 2.04885 -0.04275
        CHANNELS 6 Xposition Yposition Zposition Zrotation Xrotation Yrotation
        JOINT Neck
        {
          OFFSET 0 0 0
          CHANNELS 6 Xposition Yposition Zposition Zrotation Xrotation Yrotation
          JOINT Neck1
          {
            OFFSET -0.05417 1.74624 0.17202
            CHANNELS 6 Xposition Yposition Zposition Zrotation Xrotation Yrotation
            JOINT Head
            {
              OFFSET 0.10407 1.76136 -0.12397
              CHANNELS 6 Xposition Yposition Zposition Zrotation Xrotation Yrotation
              End Site
              {
                OFFSET 0 0 0
              }
            }
          }
        }
        JOINT LeftShoulder
        {
          OFFSET 0 0 0
          CHANNELS 6 Xposition Yposition Zposition Zrotation Xrotation Yrotation
          JOINT LeftArm
          {
            OFFSET 3.36241 1.20089 -0.311211
            CHANNELS 6 Xposition Yposition Zposition Zrotation Xrotation Yrotation
            JOINT LeftForeArm
            {
              OFFSET 4.983 0.000197398 0.000166057
              CHANNELS 6 Xposition Yposition Zposition Zrotation Xrotation Yrotation
              JOINT LeftHand
              {
                OFFSET 3.48356 0 1.87849e-05
                CHANNELS 6 Xposition Yposition Zposition Zrotation Xrotation Yrotation
                JOINT LeftFingerBase
                {
                  OFFSET 0 0 0
                  CHANNELS 6 Xposition Yposition Zposition Zrotation Xrotation Yrotation
                  JOINT LeftHandIndex1
                  {
                    OFFSET 0.71526 0 0
                    CHANNELS 6 Xposition Yposition Zposition Zrotation Xrotation Yrotation
                    End Site
                    {
                      OFFSET 0 0 0
                    }
                  }
                }
                JOINT LThumb
                {
                  OFFSET 0 0 0
                  CHANNELS 6 Xposition Yposition Zposition Zrotation Xrotation Yrotation
                  End Site
                  {
                    OFFSET 0 0 0
                  }
                }
              }
            }
          }
        }
        JOINT RightShoulder
        {
          OFFSET 0 0 0
          CHANNELS 6 Xposition Yposition Zposition Zrotation Xrotation Yrotation
          JOINT RightArm
          {
            OFFSET -3.1366 1.37405 -0.404651
            CHANNELS 6 Xposition Yposition Zposition Zrotation Xrotation Yrotation
            JOINT RightForeArm
            {
              OFFSET -5.2419 -5.8808e-05 -0.000165864
              CHANNELS 6 Xposition Yposition Zposition Zrotation Xrotation Yrotation
              JOINT RightHand
              {
                OFFSET -3.44417 0 -2.00002e-05
                CHANNELS 6 Xposition Yposition Zposition Zrotation Xrotation Yrotation
                JOINT RightFingerBase
                {
                  OFFSET 0 0 0
                  CHANNELS 6 Xposition Yposition Zposition Zrotation Xrotation Yrotation
                  JOINT RightHandIndex1
                  {
                    OFFSET -0.62253 0 0
                    CHANNELS 6 Xposition Yposition Zposition Zrotation Xrotation Yrotation
                    End Site
                    {
                      OFFSET 0 0 0
                    }
                  }
                }
                JOINT RThumb
                {
                  OFFSET 0 0 0
                  CHANNELS 6 Xposition Yposition Zposition Zrotation Xrotation Yrotation
                  End Site
                  {
                    OFFSET 0 0 0
                  }
                }
              }
            }
          }
        }
      }
    }
  }
}
MOTION
Frames:	5
Frame Time:	0.00833333
-1.21543 1.86166 -2.33057 2.00631 -4.78722 15.5592 0 0 0 -1.98785e-16 0 3.18055e-15 1.36306 -1.79463 2.24445e-07 -10.6376 -32.7037 5.79832 2.44804 -6.72616 0.000339896 -21.7816 58.022 31.2942 2.5622 -7.03958 -1.14957e-05 8.52598 10.2796 0.717036 0.15764 -0.43311 2.32255 -6.36111e-15 3.18055e-15 3.18055e-15 0 0 0 -1.98785e-16 0 3.18055e-15 -1.30552 -1.79463 -9.37136e-08 21.4668 -31.3679 4.84732 -2.54237 -6.9856 0.000310812 13.0329 51.0758 -31.7468 -2.56825 -7.05624 2.20149e-06 -2.70683 -10.0924 6.19582 -0.16473 -0.45259 2.36315 4.17448e-15 1.59028e-15 -7.95139e-16 0 0 0 -1.98785e-16 0 3.18055e-15 0.0282708 2.03559 -7.1773e-08 6.06219 19.7229 -6.70024 0.05672 2.04885 -0.04275 -3.97569e-16 -3.18055e-15 -1.59028e-15 0 0 0 -3.97569e-16 3.18055e-15 -1.59028e-15 -0.05417 1.74624 0.17202 -4.24121 -1.78835 -2.26972 0.10407 1.76136 -0.12397 3.97569e-16 0 -0 0 0 0 -3.97569e-16 3.18055e-15 -1.59028e-15 3.36241 1.20089 -0.31121 -57.0024 0.0639461 -35.1981 4.983 0.000248099 -0.00010339 1.7836 1.14683 -64.3275 3.48356 -2.46831e-06 1.56886e-05 -2.29081 -6.50334 2.60843 0 0 0 1.59028e-15 -5.46658e-15 -1.59028e-15 0.71526 0 4.996e-16 1.19271e-15 7.95139e-16 -0 0 0 0 1.59028e-15 -5.46658e-15 -1.59028e-15 0 0 0 -3.97569e-16 3.18055e-15 -1.59028e-15 -3.1366 1.37405 -0.40465 69.2437 -8.1222 44.3437 -5.2419 0.000236737 0.000114873 -2.12889 1.24516 85.1788 -3.44417 -3.98045e-06 2.84983e-06 -13.9764 31.1203 -12.0592 0 0 0 -3.18055e-15 -8.74653e-15 1.59028e-15 -0.62253 0 0 3.18055e-15 -1.19271e-15 1.59028e-15 0 0 0 -3.18055e-15 -8.74653e-15 1.59028e-15 
-1.23089 1.85791 -2.3222 2.54084 -4.53439 15.9301 0 0 0 -1.98785e-16 -7.95139e-16 3.18055e-15 1.36306 -1.79463 2.24445e-07 -10.9334 -34.2595 5.57299 2.44804 -6.72616 0.000339896 -24.987 60.0379 35.3962 2.5622 -7.03958 -1.14957e-05 8.0605 8.53872 0.560812 0.15764 -0.43311 2.32255 -3.18055e-15 -3.18055e-15 -0 0 0 0 -1.98785e-16 -7.95139e-16 3.18055e-15 -1.30552 -1.79463 -9.37136e-08 20.6558 -30.8719 4.24572 -2.54237 -6.9856 0.000310812 12.349 50.1975 -30.5971 -2.56825 -7.05624 2.20149e-06 -2.60914 -9.60699 5.93439 -0.16473 -0.45259 2.36315 -7.95139e-16 0 -7.95139e-16 0 0 0 -1.98785e-16 -7.95139e-16 3.18055e-15 0.0282708 2.03559 -7.1773e-08 5.52067 19.4756 -6.65597 0.05672 2.04885 -0.04275 -1.98785e-15 -3.18055e-15 -1.59028e-15 0 0 0 -3.97569e-16 -3.18055e-15 -1.59028e-15 -0.05417 1.74624 0.17202 -4.36898 -1.84085 -2.35366 0.10407 1.76136 -0.12397 -3.97569e-16 -1.59028e-15 -1.59028e-15 0 0 0 -3.97569e-16 -3.18055e-15 -1.59028e-15 3.36241 1.20089 -0.31121 -56.7966 -0.311381 -36.167 4.983 0.000248099 -0.00010339 1.74814 1.14382 -63.9725 3.48356 -2.46831e-06 1.56886e-05 -2.18355 -6.5202 2.64391 0 0 0 5.96354e-16 -7.40473e-15 1.59028e-15 0.71526 0 -2.22045e-16 1.78906e-15 -1.0635e-14 -1.59028e-15 0 0 0 5.96354e-16 -7.40473e-15 1.59028e-15 0 0 0 -3.97569e-16 -3.18055e-15 -1.59028e-15 -3.1366 1.37405 -0.40465 69.5206 -8.04131 43.2108 -5.2419 0.000236737 0.000114873 -2.1321 1.24525 85.3014 -3.44417 -3.98045e-06 2.84983e-06 -14.0518 30.1057 -12.5968 0 0 0 -3.18055e-15 -7.95139e-16 3.18055e-15 -0.62253 0 -5.55112e-16 -2.20695e-32 3.97569e-16 3.18055e-15 0 0 0 -3.18055e-15 -7.95139e-16 3.18055e-15 
-1.24619 1.85453 -2.31571 3.0704 -4.26687 16.2816 0 0 0 3.97569e-16 0 -0 1.36306 -1.79463 2.24445e-07 -11.2661 -35.7796 5.32388 2.44804 -6.72616 0.000339896 -28.4773 61.838 39.7149 2.5622 -7.03958 -1.14957e-05 7.65531 6.85551 0.347684 0.15764 -0.43311 2.32255 -4.77083e-15 -9.54166e-15 3.18055e-15 0 0 0 3.97569e-16 0 -0 -1.30552 -1.79463 -9.37136e-08 19.859 -30.3865 3.65102 -2.54237 -6.9856 0.000310812 11.6828 49.2904 -29.4751 -2.56825 -7.05624 2.20149e-06 -2.56028 -9.0827 5.64919 -0.16473 -0.45259 2.36315 -3.97569e-16 -1.59028e-15 2.38542e-15 0 0 0 3.97569e-16 0 -0 0.0282708 2.03559 -7.1773e-08 4.97987 19.2506 -6.62039 0.05672 2.04885 -0.04275 8.82781e-32 -3.18055e-15 1.59028e-15 0 0 0 3.97569e-16 -3.18055e-15 -1.59028e-15 -0.05417 1.74624 0.17202 -4.50738 -1.89929 -2.44062 0.10407 1.76136 -0.12397 -3.97569e-16 0 3.18055e-15 0 0 0 3.97569e-16 -3.18055e-15 -1.59028e-15 3.36241 1.20089 -0.31121 -56.6912 -0.826115 -37.234 4.983 0.000248099 -0.00010339 1.71231 1.14096 -63.642 3.48356 -2.46831e-06 1.56886e-05 -2.06987 -6.52597 2.74002 0 0 0 8.94531e-16 1.31695e-15 -1.59028e-15 0.71526 0 1.11022e-16 1.2921e-15 -2.08724e-15 -1.59028e-15 0 0 0 8.94531e-16 1.31695e-15 -1.59028e-15 0 0 0 3.97569e-16 -3.18055e-15 -1.59028e-15 -3.1366 1.37405 -0.40465 69.8061 -7.96356 42.1356 -5.2419 0.000236737 0.000114873 -2.13485 1.24637 85.4081 -3.44417 -3.98045e-06 2.84983e-06 -14.164 29.1256 -13.114 0 0 0 3.18055e-15 -1.98785e-15 -1.59028e-15 -0.62253 -8.88178e-16 3.33067e-16 3.18055e-15 -7.95139e-15 -2.38542e-15 0 0 0 3.18055e-15 -1.98785e-15 -1.59028e-15 
-1.26204 1.85144 -2.31289 3.57929 -3.99917 16.6189 0 0 0 5.96354e-16 -7.95139e-16 3.18055e-15 1.36306 -1.79463 2.24445e-07 -11.6192 -37.2672 5.05342 2.44804 -6.72616 0.000339896 -32.3451 63.4273 44.2963 2.5622 -7.03958 -1.14957e-05 7.5022 5.25524 0.0320694 0.15764 -0.43311 2.32255 -4.77083e-15 0 -1.27222e-14 0 0 0 5.96354e-16 -7.95139e-16 3.18055e-15 -1.30552 -1.79463 -9.37136e-08 19.0986 -29.893 3.07213 -2.54237 -6.9856 0.000310812 11.0249 48.3463 -28.3987 -2.56825 -7.05624 2.20149e-06 -2.56117 -8.52581 5.34581 -0.16473 -0.45259 2.36315 3.18055e-15 0 -0 0 0 0 5.96354e-16 -7.95139e-16 3.18055e-15 0.0282708 2.03559 -7.1773e-08 4.4662 19.0658 -6.60235 0.05672 2.04885 -0.04275 -1.76556e-31 3.18055e-15 3.18055e-15 0 0 0 3.97569e-16 -3.18055e-15 3.18055e-15 -0.05417 1.74624 0.17202 -4.65011 -1.96858 -2.53479 0.10407 1.76136 -0.12397 7.95139e-16 -1.59028e-15 -0 0 0 0 3.97569e-16 -3.18055e-15 3.18055e-15 3.36241 1.20089 -0.31121 -56.6396 -1.39402 -38.3773 4.983 0.000248099 -0.00010339 1.6863 1.1382 -63.3471 3.48356 -2.46831e-06 1.56886e-05 -2.00199 -6.52582 2.92711 0 0 0 8.57259e-16 7.44977e-15 -1.59028e-15 0.71526 -8.88178e-16 -1.11022e-16 8.57259e-16 1.09145e-14 -3.18055e-15 0 0 0 8.57259e-16 7.44977e-15 -1.59028e-15 0 0 0 3.97569e-16 -3.18055e-15 3.18055e-15 -3.1366 1.37405 -0.40465 70.0763 -7.89015 41.121 -5.2419 0.000236737 0.000114873 -2.13726 1.24706 85.5157 -3.44417 -3.98045e-06 2.84983e-06 -14.3177 28.2233 -13.6127 0 0 0 0 5.56597e-15 -0 -0.62253 -8.88178e-16 -6.66134e-16 -3.31043e-31 -4.77083e-15 -3.97569e-15 0 0 0 0 5.56597e-15 -0 
-1.27871 1.84873 -2.31261 4.0609 -3.73198 16.9377 0 0 0 1.98785e-16 7.95139e-16 6.36111e-15 1.36306 -1.79463 2.24445e-07 -11.9984 -38.7129 4.75252 2.44804 -6.72616 0.000339896 -36.5122 64.8003 49.0422 2.5622 -7.03958 -1.14957e-05 7.59112 3.76344 -0.420713 0.15764 -0.43311 2.32255 1.59028e-15 -3.18055e-15 3.18055e-15 0 0 0 1.98785e-16 7.95139e-16 6.36111e-15 -1.30552 -1.79463 -9.37136e-08 18.3837 -29.3867 2.51195 -2.54237 -6.9856 0.000310812 10.3616 47.3546 -27.3674 -2.56825 -7.05624 2.20149e-06 -2.60587 -7.92524 5.01861 -0.16473 -0.45259 2.36315 -5.96354e-16 0 -0 0 0 0 1.98785e-16 7.95139e-16 6.36111e-15 0.0282708 2.03559 -7.1773e-08 3.98901 18.9341 -6.60664 0.05672 2.04885 -0.04275 3.97569e-16 0 1.59028e-15 0 0 0 -3.97569e-16 0 1.59028e-15 -0.05417 1.74624 0.17202 -4.79923 -2.05259 -2.63883 0.10407 1.76136 -0.12397 -7.95139e-16 0 1.59028e-15 0 0 0 -3.97569e-16 0 1.59028e-15 3.36241 1.20089 -0.31121 -56.6681 -2.00821 -39.6216 4.983 0.000248099 -0.00010339 1.67404 1.13581 -63.0991 3.48356 -2.46831e-06 1.56886e-05 -2.01682 -6.32131 3.25435 0 0 0 -9.93923e-17 2.8948e-15 -0 0.71526 8.88178e-16 -4.44089e-16 -3.97569e-16 3.00662e-15 -0 0 0 0 -9.93923e-17 2.8948e-15 -0 0 0 0 -3.97569e-16 0 1.59028e-15 -3.1366 1.37405 -0.40465 70.3217 -7.82704 40.1843 -5.2419 0.000236737 0.000114873 -2.13867 1.24693 85.6261 -3.44417 -3.98045e-06 2.84983e-06 -14.5203 27.4272 -14.0896 0 0 0 3.18055e-15 -5.96354e-16 1.59028e-15 -0.62253 -8.88178e-16 2.22045e-16 1.82074e-31 -4.37326e-15 2.38542e-15 0 0 0 3.18055e-15 -5.96354e-16 1.59028e-15 
